<?xml version="1.0" encoding="utf-8"?>
<!-- Svg Vector Icons : http://www.onlinewebfonts.com/icon -->
<!DOCTYPE svg PUBLIC "-//W3C//DTD SVG 1.1//EN" "http://www.w3.org/Graphics/SVG/1.1/DTD/svg11.dtd">
<svg version="1.1" xmlns="http://www.w3.org/2000/svg" xmlns:xlink="http://www.w3.org/1999/xlink" x="0px" y="0px" viewBox="0 0 1000 1000" enable-background="new 0 0 1000 1000" xml:space="preserve">
<metadata> Svg Vector Icons : http://www.onlinewebfonts.com/icon </metadata>
<g><path d="M500,892L500,892c216.5,0,392-175.5,392-392c0-216.5-175.5-392-392-392c-216.5,0-392,175.5-392,392C108,716.5,283.5,892,500,892L500,892z M500,990L500,990C229.4,990,10,770.6,10,500S229.4,10,500,10s490,219.4,490,490S770.6,990,500,990L500,990z"/><path d="M431.4,308.9c0,40.6,32.9,73.5,73.5,73.5c40.6,0,73.5-32.9,73.5-73.5c0-40.6-32.9-73.5-73.5-73.5C464.3,235.4,431.4,268.3,431.4,308.9z M509.8,431.4c27.1,0,49,22,49,49v245.1c0,27-22,49-49,49c-27.1,0-49-22-49-49V480.4C460.8,453.3,482.8,431.4,509.8,431.4z"/></g>
</svg>